<svg width="512" height="512" viewBox="0 0 100 100" xmlns="http://www.w3.org/2000/svg">
  <defs>
    <linearGradient id="bgGrad" x1="0%" y1="0%" x2="100%" y2="100%">
      <stop offset="0%" style="stop-color:#F27D26;stop-opacity:1" />
      <stop offset="100%" style="stop-color:#E65100;stop-opacity:1" />
    </linearGradient>
    <filter id="shadow" x="-20%" y="-20%" width="140%" height="140%">
      <feGaussianBlur in="SourceAlpha" stdDeviation="2" />
      <feOffset dx="1" dy="1" result="offsetblur" />
      <feComponentTransfer>
        <feFuncA type="linear" slope="0.3" />
      </feComponentTransfer>
      <feMerge>
        <feMergeNode />
        <feMergeNode in="SourceGraphic" />
      </feMerge>
    </filter>
  </defs>
  <rect width="100" height="100" rx="22" fill="url(#bgGrad)"/>
  
  <g filter="url(#shadow)">
    <path 
      d="M22,15 C25,13 62,14 65,15 L85,35 C86,38 85,78 84,81 C82,84 25,85 22,83 C20,81 21,18 22,15 Z" 
      fill="white" 
      stroke="#141414" 
      stroke-width="2"
    />
    <path d="M65,15 L65,35 L85,35" fill="#f5f5f5" stroke="#141414" stroke-width="1.5" stroke-linejoin="round"/>
    
    <path d="M30,45 Q45,41 60,45 T75,43" fill="none" stroke="#ef4444" stroke-width="2.5" stroke-linecap="round" opacity="0.8"/>
    <path d="M32,55 Q42,51 55,55 T70,53" fill="none" stroke="#ef4444" stroke-width="2.5" stroke-linecap="round" opacity="0.8"/>
    <path d="M30,65 Q48,61 65,65 T72,63" fill="none" stroke="#ef4444" stroke-width="2.5" stroke-linecap="round" opacity="0.8"/>
    
    <g transform="translate(48, 58) rotate(-20) scale(0.8)">
      <path d="M0,5 Q0,0 5,0 L20,0 L20,30 L5,30 Q0,30 0,25 Z" fill="#3b82f6" stroke="#141414" stroke-width="2"/>
      <path d="M20,0 L35,0 Q40,0 40,5 L40,25 Q40,30 35,30 L20,30 Z" fill="white" stroke="#141414" stroke-width="2"/>
    </g>
  </g>
</svg>
